<svg height="488pt" viewBox="0 -2 488.412 488" width="488pt" xmlns="http://www.w3.org/2000/svg"><path d="m4.003906 94.871094h480v166.492187h-480zm0 0" fill="#f9a7a7"/><path d="m459.390625 166.953125h-50.226563c-4.15625-7.160156-11.890624-12-20.753906-12-8.863281 0-16.597656 4.839844-20.753906 12h-50.226562c-.660157 3.90625-1.019532 7.910156-1.019532 12s.359375 8.097656 1.019532 12h50.226562c2.027344 3.488281 4.902344 6.414063 8.34375 8.503906v50.402344c4.035156.707031 8.175781 1.09375 12.410156 1.09375 3.945313 0 7.8125-.332031 11.589844-.945313v-50.054687c3.8125-2.109375 6.976562-5.238281 9.160156-9h50.230469c.65625-3.90625 1.019531-7.914063 1.019531-12 0-4.089844-.359375-8.09375-1.019531-12zm0 0" fill="#ffea92"/><path d="m71.335938 261.363281h-67.332032v-147.15625h67.332032c13.253906 0 24 10.746094 24 24v99.15625c0 13.253907-10.746094 24-24 24zm0 0" fill="#f9cfcf"/><path d="m484 265.363281h-480c-2.207031 0-4-1.792969-4-4v-166.492187c0-2.207032 1.792969-4 4-4h480c2.207031 0 4 1.792968 4 4v166.492187c0 2.210938-1.789062 4-4 4zm-476-8h472v-158.492187h-472zm0 0" fill="#3762cc"/><path d="m124.003906 74.792969v191.566406c0 4.746094 6.265625 8.59375 14 8.59375h132c7.730469 0 14-3.847656 14-8.59375v-191.566406c0-4.746094-6.269531-8.59375-14-8.59375h-132c-7.734375 0-14 3.847656-14 8.59375zm0 0" fill="#f9a7a7"/><path d="m258.003906 205.285156h-108c-4.417968 0-8-3.582031-8-8v-68c0-4.417968 3.582032-8 8-8h108c4.417969 0 8 3.582032 8 8v68c0 4.417969-3.582031 8-8 8zm0 0" fill="#f9cfcf"/><g fill="#e0ebfc"><path d="m154.003906 185.285156v-44c0-4.417968 3.582032-8 8-8h84c4.417969 0 8 3.582032 8 8v44c0 4.417969-3.582031 8-8 8h-84c-4.417968 0-8-3.582031-8-8zm0 0"/><path d="m262.003906 105.285156h-116c-2.210937 0-4-1.789062-4-4v-16c0-2.210937 1.789063-4 4-4h116c2.207032 0 4 1.789063 4 4v16c0 2.207032-1.792968 4-4 4zm0 0"/><path d="m262.003906 246.207031h-116c-2.210937 0-4-1.789062-4-4v-19.335937c0-2.207032 1.789063-4 4-4h116c2.207032 0 4 1.792968 4 4v19.335937c0 2.210938-1.792968 4-4 4zm0 0"/></g><path d="m270 278.953125h-132c-10.09375 0-18-5.535156-18-12.597656v-191.5625c0-7.058594 7.90625-12.59375 18-12.59375h132c10.09375 0 18 5.535156 18 12.59375v191.5625c0 7.0625-7.90625 12.597656-18 12.597656zm-132-208.753906c-6.011719 0-10 2.765625-10 4.59375v191.5625c0 1.832031 3.988281 4.597656 10 4.597656h132c6.011719 0 10-2.765625 10-4.597656v-191.5625c0-1.828125-3.988281-4.59375-10-4.59375zm0 0" fill="#3762cc"/><path d="m388.410156 82.953125c-53.019531 0-96 42.980469-96 96s42.980469 96 96 96c53.019532 0 96-42.980469 96-96s-42.980468-96-96-96zm0 168c-39.699218 0-72-32.296875-72-72s32.300782-72 72-72c39.703125 0 72 32.296875 72 72s-32.296875 72-72 72zm0 0" fill="#ffea92"/><path d="m388.410156 278.953125c-55.136718 0-100-44.859375-100-100 0-55.136719 44.863282-100 100-100 55.140625 0 100 44.863281 100 100 0 55.140625-44.859375 100-100 100zm0-192c-50.726562 0-92 41.273437-92 92 0 50.730469 41.273438 92 92 92 50.730469 0 92-41.269531 92-92 0-50.726563-41.269531-92-92-92zm0 168c-41.902344 0-76-34.09375-76-76s34.097656-76 76-76c41.90625 0 76 34.09375 76 76s-34.09375 76-76 76zm0-144c-37.496094 0-68 30.503906-68 68s30.503906 68 68 68 68-30.503906 68-68-30.503906-68-68-68zm0 0" fill="#3762cc"/><path d="m311.984375 410.105469h-135.964844c-8.84375 0-16.015625-7.171875-16.015625-16.015625v-169.566406c0-8.84375 7.171875-16.015626 16.015625-16.015626h135.964844c8.84375 0 16.019531 7.171876 16.019531 16.015626v169.566406c0 8.84375-7.175781 16.015625-16.019531 16.015625zm0 0" fill="#a4c9ff"/><path d="m311.984375 414.105469h-135.964844c-11.039062 0-20.015625-8.980469-20.015625-20.019531v-169.5625c0-11.035157 8.976563-20.015626 20.015625-20.015626h135.964844c11.039063 0 20.019531 8.980469 20.019531 20.015626v169.5625c-.003906 11.039062-8.984375 20.019531-20.019531 20.019531zm-135.964844-201.597657c-6.625 0-12.015625 5.390626-12.015625 12.015626v169.5625c0 6.625 5.390625 12.019531 12.015625 12.019531h135.964844c6.625 0 12.019531-5.390625 12.019531-12.019531v-169.5625c0-6.625-5.390625-12.015626-12.019531-12.015626zm0 0" fill="#3762cc"/><path d="m291.304688 295.191406h-1.324219c-6.179688 0-11.191407 5.007813-11.191407 11.1875v-29.179687c0-6.183594-5.011718-11.195313-11.195312-11.195313h-1.324219c-6.179687 0-11.191406 5.011719-11.191406 11.191406v-16.671874c0-6.183594-5.011719-11.195313-11.195313-11.195313h-1.316406c-6.183594 0-11.195312 5.011719-11.195312 11.195313v11.15625c0-6.207032-5.03125-11.234376-11.238282-11.234376h-1.234374c-6.207032 0-11.242188 5.03125-11.242188 11.242188v57.292969c0-10.984375-8.902344-19.890625-19.890625-19.890625h-1.324219c-1.378906 0-2.492187 1.117187-2.492187 2.492187v104.5c0 10.863281 3.371093 21.460938 9.648437 30.328125l1.042969 1.472656c.933594 1.699219 2.054687 3.277344 3.335937 4.710938l.476563.671875s.011719-.039063.027344-.109375c2.652343 2.789062 5.933593 4.984375 9.617187 6.347656.003906 0 .003906.003906.003906.007813v20.6875c0 .003906.003907.003906.007813.003906h77.988281c.003906 0 .003906 0 .003906-.003906v-20.871094c0-.003906.003907-.003906.003907-.007813 9.40625-3.707031 16.074219-12.855468 16.074219-23.578124v-43.269532h.078124c.136719 0 .25-.109375.25-.25v-85.839844c-.003906-6.179687-5.019531-11.191406-11.203124-11.191406zm0 0" fill="#f9cfcf"/><path d="m291.3125 291.191406h-1.332031c-2.601563 0-5.046875.65625-7.191407 1.8125v-15.804687c0-8.378907-6.816406-15.199219-15.195312-15.199219h-1.324219c-2.601562 0-5.050781.65625-7.195312 1.8125v-3.292969c0-8.378906-6.8125-15.195312-15.195313-15.195312h-1.324218c-.023438 0-.042969.003906-.070313.003906-.472656 0-.941406.023437-1.40625.070313-.183594.019531-.367187.050781-.550781.078124-.296875.039063-.59375.078126-.886719.136719-.210937.042969-.417969.097657-.628906.148438-.253907.0625-.511719.121093-.761719.195312-.21875.0625-.433594.140625-.644531.214844-.234375.078125-.464844.160156-.695313.253906-.214844.085938-.425781.179688-.636718.277344-.214844.097656-.429688.199219-.640626.308594-.207031.105469-.414062.222656-.621093.339843-.199219.113282-.394531.234376-.589844.355469-.199219.128907-.398437.257813-.59375.398438-.1875.132812-.367187.265625-.542969.40625-.191406.148437-.382812.292969-.5625.449219-.171875.148437-.335937.300781-.496094.453124-.175781.164063-.355468.328126-.523437.5-.15625.160157-.304687.332032-.453125.5-.160156.175782-.324219.351563-.476562.539063-.144532.175781-.277344.367187-.414063.554687-.226563.308594-.445313.621094-.648437.945313-.160157.253906-.324219.503906-.46875.765625-.105469.199219-.195313.402344-.296876.605469-.109374.21875-.222656.4375-.320312.667969-.089844.207031-.164062.417968-.246094.628906-.089844.234375-.179687.464844-.257812.703125-.070313.214843-.128906.433593-.1875.652343-.066406.246094-.132813.488282-.191406.738282-.046876.21875-.085938.445312-.125.664062-.027344.15625-.066407.308594-.089844.464844-.773438-.429688-1.597656-.765625-2.449219-1.058594-.207031-.070312-.414063-.144531-.625-.207031-.300781-.085937-.601563-.164063-.90625-.234375-.285156-.066406-.574219-.121094-.863281-.167969-.261719-.042969-.527344-.089843-.792969-.121093-.5-.058594-1.007813-.089844-1.519531-.097657-.0625 0-.125-.011719-.1875-.011719h-1.324219c-8.382813 0-15.199219 6.816407-15.199219 15.195313v39.515625c-4.226562-3.773438-9.796875-6.066406-15.890625-6.066406h-1.324219c-3.582031 0-6.496093 2.914062-6.496093 6.492187v102.878907c0 12.738281 3.863281 24.96875 11.183593 35.386718 1.015626 1.84375 2.273438 3.621094 3.746094 5.289063l.316406.445312c.285157.402344.640626.734375 1.039063.996094 2.292969 2.269531 4.96875 4.160156 7.871094 5.566406v18.054688c0 2.207031 1.796875 4.003906 4.007812 4.003906h77.988281c2.207032 0 4.003907-1.792969 4.003907-4.003906v-18.292969c9.851562-4.972656 16.078125-14.964844 16.078125-26.164062v-43.25l.328125-86.101563c0-.003906 0-.007813 0-.015625-.011719-8.371094-6.824219-15.183594-15.199219-15.183594zm6.859375 101.285156v43.269532c0 8.820312-5.3125 16.613281-13.542969 19.855468-.507812.203126-.972656.503907-1.359375.894532-.75.75-1.175781 1.773437-1.175781 2.832031v16.878906h-70v-16.695312c0-1.0625-.429688-2.085938-1.179688-2.835938-.40625-.40625-.898437-.722656-1.441406-.921875-3.054687-1.128906-5.855468-2.976562-8.097656-5.347656-.0625-.066406-.125-.128906-.191406-.191406-.0625-.082032-.128906-.164063-.203125-.242188-1.175781-1.3125-2.164063-2.703125-2.933594-4.132812-.078125-.144532-.164063-.285156-.257813-.417969-6.445312-9.101563-9.851562-19.804687-9.851562-30.960937v-101.371094c8.679688.097656 15.710938 7.1875 15.710938 15.890625v29.425781c0 2.207031 1.792968 4 4 4 2.210937 0 4-1.792969 4-4v-86.71875c0-3.996094 3.25-7.242188 7.242187-7.242188h1.230469c3.992187 0 7.242187 3.246094 7.242187 7.242188v85.863281c-.078125.3125-.121093.636719-.121093.976563 0 2.207031 1.792968 4 4 4 2.207031 0 4.121093-1.914063 4.121093-4.121094v-86.71875c0-.011719-.003906-.023438-.003906-.035156 0-.003906.003906-.011719.003906-.019532v-11.113281c0-3.96875 3.226563-7.195312 7.195313-7.195312h1.320312c3.96875 0 7.195313 3.226562 7.195313 7.195312v99.023438c-.078125.308593-.117188.632812-.117188.964843 0 2.207032 1.789063 4 4 4 2.207031 0 4.117188-1.90625 4.117188-4.117187v-82.84375c0-4.160156 3.523437-7.546875 7.855469-7.546875 4.332031 0 7.859374 3.386719 7.859374 7.546875v82.539063c0 2.207031 1.789063 4 4 4 2.207032 0 4-1.792969 4-4v-53.710938c0-3.960938 3.222657-7.1875 7.1875-7.1875h1.332032c3.964844 0 7.1875 3.222656 7.191406 7.183594zm0 0" fill="#3762cc"/><path d="m37.730469 46.363281c-6.746094 14.738281-17.929688 27.015625-31.855469 35.132813-2.496094 1.453125-2.496094 4.988281 0 6.441406 13.925781 8.109375 25.109375 20.390625 31.855469 35.128906 1.308593 2.863282 5.390625 2.863282 6.703125 0 6.742187-14.738281 17.929687-27.019531 31.851562-35.128906 2.5-1.457031 2.5-4.988281 0-6.441406-13.921875-8.117188-25.109375-20.394532-31.851562-35.132813-1.3125-2.863281-5.394532-2.863281-6.703125 0zm0 0" fill="#ffea92"/><path d="m88.652344 1.710938c-4.71875 10.316406-12.550782 18.910156-22.296875 24.589843-1.746094 1.019531-1.746094 3.492188 0 4.511719 9.746093 5.679688 17.578125 14.273438 22.296875 24.59375.917968 2.003906 3.777344 2.003906 4.691406 0 4.71875-10.320312 12.550781-18.914062 22.296875-24.59375 1.75-1.019531 1.75-3.488281 0-4.511719-9.746094-5.679687-17.578125-14.273437-22.296875-24.589843-.914062-2.007813-3.773438-2.007813-4.691406 0zm0 0" fill="#ffea92"/><path d="m388.410156 254.953125c-4.304687 0-8.710937-.386719-13.097656-1.152344-1.914062-.332031-3.308594-1.996093-3.308594-3.941406v-48.265625c-2.53125-1.835938-4.738281-4.085938-6.53125-6.640625h-48.039062c-1.957032 0-3.621094-1.410156-3.949219-3.335937-.710937-4.230469-1.074219-8.492188-1.074219-12.664063s.363282-8.433594 1.078125-12.664063c.324219-1.925781 1.988281-3.335937 3.945313-3.335937h48.039062c5.214844-7.457031 13.804688-12 22.941406-12 9.136719 0 17.722657 4.542969 22.941407 12h48.042969c1.953124 0 3.621093 1.410156 3.945312 3.335937.710938 4.222657 1.070312 8.484376 1.070312 12.664063 0 4.171875-.359374 8.433594-1.070312 12.664063-.328125 1.925781-1.992188 3.335937-3.949219 3.335937h-48.035156c-1.992187 2.851563-4.484375 5.304687-7.355469 7.238281v47.816406c0 1.957032-1.421875 3.628907-3.359375 3.949219-4.074219.660157-8.191406.996094-12.234375.996094zm-8.410156-8.535156c5.386719.675781 10.652344.707031 16 .101562v-46.5625c0-1.453125.789062-2.792969 2.058594-3.5 3.167968-1.753906 5.8125-4.351562 7.644531-7.511719.714844-1.234374 2.035156-1.992187 3.457031-1.992187h46.765625c.320313-2.683594.480469-5.363281.480469-8s-.160156-5.316406-.480469-8h-46.765625c-1.425781 0-2.742187-.757813-3.457031-1.992187-3.585937-6.171876-10.210937-10.007813-17.292969-10.007813-7.085937 0-13.707031 3.835937-17.292968 10.007813-.714844 1.234374-2.03125 1.992187-3.457032 1.992187h-46.765625c-.320312 2.683594-.484375 5.367187-.484375 8 0 2.636719.164063 5.316406.484375 8h46.765625c1.425782 0 2.742188.757813 3.457032 1.992187 1.683593 2.894532 4.089843 5.347657 6.957031 7.09375 1.199219.722657 1.925781 2.019532 1.925781 3.417969zm0 0" fill="#3762cc"/></svg>