<svg height="479pt" viewBox="0 -10 479.9395 479" width="479pt" xmlns="http://www.w3.org/2000/svg"><path d="m459.941406 245.113281v-44.101562c0-8.066407-6.542968-14.605469-14.609375-14.605469h-53.390625l-55.960937-88.550781c-2.929688-4.640625-8.035157-7.449219-13.523438-7.449219h-181.039062c-5.488281 0-10.59375 2.808594-13.523438 7.449219l-55.953125 88.550781h-37.394531c-8.066406 0-14.605469 6.539062-14.605469 14.605469v44.101562zm0 0" fill="#4671c6"/><path d="m377.015625 207.472656-57.667969-95.453125c-1.09375-1.808593-2.996094-2.90625-5.042968-2.90625h-164.730469c-2.046875 0-3.953125 1.097657-5.046875 2.90625l-57.664063 95.453125c-.605469.996094-.925781 2.152344-.925781 3.335938v28.0625c0 3.449218 2.671875 6.242187 5.96875 6.242187h280.0625c3.296875 0 5.96875-2.796875 5.96875-6.242187v-28.0625c.003906-1.183594-.316406-2.339844-.921875-3.335938zm0 0" fill="#b9befc"/><path d="m247.8125 164.808594v8.722656c.992188-.503906 2.097656-.816406 3.285156-.816406h.714844v-3.089844c-2.273438-.425781-3.996094-2.417969-4-4.816406zm0 0" fill="#e0ebfc"/><path d="m314.074219 126.496094c-2.015625-3.339844-5.636719-5.382813-9.539063-5.382813h-52.71875c-2.210937 0-4 1.789063-4 4v17.511719c0-2.710938 2.195313-4.910156 4.90625-4.910156h3.09375c4.417969 0 8 3.582031 8 8v16c0 4.417968-3.582031 8-8 8v3h.714844c4.023438 0 7.285156 3.265625 7.285156 7.289062v6.402344h53.105469l5.691406-16.457031c.667969-1.933594 2.488281-3.234375 4.535157-3.234375h11.226562zm0 0" fill="#e0ebfc"/><path d="m19.941406 202.1875h24c4.417969 0 8 3.582031 8 8v16c0 4.417969-3.582031 8-8 8h-24zm0 0" fill="#ffea92"/><path d="m459.941406 249.113281h-440c-2.210937 0-4-1.792969-4-4v-44.101562c0-10.261719 8.34375-18.605469 18.605469-18.605469h35.1875l54.78125-86.683594c3.6875-5.835937 10.007813-9.316406 16.90625-9.316406h181.039063c6.898437 0 13.21875 3.480469 16.90625 9.316406l54.78125 86.683594h51.1875c10.257812 0 18.609374 8.34375 18.609374 18.605469v44.101562c-.003906 2.210938-1.796874 4-4.003906 4zm-436-8h432v-40.101562c0-5.847657-4.761718-10.605469-10.609375-10.605469h-53.390625c-1.375 0-2.648437-.707031-3.382812-1.867188l-55.960938-88.542968c-2.207031-3.5-6-5.589844-10.140625-5.589844h-181.035156c-4.140625 0-7.933594 2.089844-10.144531 5.589844l-55.957032 88.542968c-.734374 1.160157-2.011718 1.867188-3.382812 1.867188h-37.390625c-5.847656 0-10.605469 4.757812-10.605469 10.605469zm0 0" fill="#3762cc"/><path d="m162.441406 306.777344c0 28.71875-23.28125 52-52 52-28.722656 0-52-23.28125-52-52s23.277344-52 52-52c28.71875 0 52 23.28125 52 52zm0 0" fill="#f9a7a7"/><path d="m422.441406 306.777344c0 28.71875-23.28125 52-52 52-28.722656 0-52-23.28125-52-52s23.277344-52 52-52c28.71875 0 52 23.28125 52 52zm0 0" fill="#f9a7a7"/><path d="m142.441406 306.777344c0 17.675781-14.328125 32-32 32-17.675781 0-32-14.324219-32-32 0-17.671875 14.324219-32 32-32 17.671875 0 32 14.328125 32 32zm0 0" fill="#ffea92"/><path d="m398.441406 306.777344c0 15.464844-12.539062 28-28 28-15.464844 0-28-12.535156-28-28 0-15.460938 12.535156-28 28-28 15.460938 0 28 12.539062 28 28zm0 0" fill="#ffea92"/><g fill="#3762cc"><path d="m110.441406 338.777344c-17.644531 0-32-14.355469-32-32 0-17.644532 14.355469-32 32-32 17.640625 0 32 14.355468 32 32 0 17.644531-14.359375 32-32 32zm0-56c-13.234375 0-24 10.765625-24 24s10.765625 24 24 24c13.230469 0 24-10.765625 24-24s-10.769531-24-24-24zm0 0"/><path d="m110.441406 362.777344c-30.878906 0-56-25.121094-56-56 0-30.875 25.121094-56 56-56 30.875 0 56 25.125 56 56 0 30.878906-25.125 56-56 56zm0-104c-26.46875 0-48 21.535156-48 48 0 26.46875 21.53125 48 48 48 26.464844 0 48-21.53125 48-48 0-26.464844-21.535156-48-48-48zm0 0"/><path d="m370.441406 362.777344c-30.878906 0-56-25.121094-56-56 0-30.875 25.121094-56 56-56 30.875 0 56 25.125 56 56 0 30.878906-25.125 56-56 56zm0-104c-26.46875 0-48 21.535156-48 48 0 26.46875 21.53125 48 48 48 26.464844 0 48-21.53125 48-48 0-26.464844-21.535156-48-48-48zm0 0"/><path d="m370.441406 338.777344c-17.644531 0-32-14.355469-32-32 0-17.644532 14.355469-32 32-32 17.640625 0 32 14.355468 32 32 0 17.644531-14.359375 32-32 32zm0-56c-13.234375 0-24 10.765625-24 24s10.765625 24 24 24c13.230469 0 24-10.765625 24-24s-10.769531-24-24-24zm0 0"/></g><path d="m169.941406 186.40625h60c2.207032 0 4-1.792969 4-4v-57.292969c0-2.210937-1.792968-4-4-4h-60c-2.210937 0-4 1.789063-4 4v57.292969c0 2.207031 1.789063 4 4 4zm0 0" fill="#e0ebfc"/><path d="m371.972656 245.113281c3.292969 0 5.96875-2.796875 5.96875-6.242187v-28.0625c0-1.183594-.320312-2.339844-.925781-3.335938l-24.621094-40.757812h-25.246093c-2.046876 0-3.867188 1.296875-4.535157 3.230468l-9.082031 26.265626c-.839844 2.429687.378906 5.085937 2.769531 6.03125l7.429688 2.945312 26.371093 11.902344c1.71875.773437 2.824219 2.488281 2.824219 4.375v23.644531h19.046875zm0 0" fill="#f9a7a7"/><path d="m99.589844 186.40625-13.648438 22.59375v29.867188c0 3.449218 2.671875 6.242187 5.964844 6.242187h49.035156v-50.703125c0-4.417969-3.582031-8-8-8zm0 0" fill="#f9a7a7"/><path d="m469.742188 236.1875h-9.804688v-36h9.804688c3.421874 0 6.195312 2.773438 6.195312 6.195312v23.605469c.003906 3.425781-2.773438 6.199219-6.195312 6.199219zm0 0" fill="#ffea92"/><path d="m198.871094 229.113281h-46.339844c4.023438 0 7.285156-3.261719 7.285156-7.285156v-41.824219c0-4.023437-3.261718-7.289062-7.285156-7.289062h-.714844v-3c4.417969 0 8-3.582032 8-8v-16c0-4.417969-3.582031-8-8-8h-3.09375c-2.710937 0-4.90625 2.199218-4.90625 4.910156v22.183594c0 2.398437 1.722656 4.386718 4 4.816406v3.089844h-.714844c-4.023437 0-7.285156 3.265625-7.285156 7.289062v41.824219c0 4.023437 3.261719 7.285156 7.285156 7.285156h-1.917968c-2.964844 0-5.367188 2.402344-5.367188 5.367188v5.265625c0 2.960937 2.402344 5.363281 5.367188 5.363281h57.265625c2.964843 0 5.367187-2.402344 5.367187-5.363281v-1.691406c-.003906-4.9375-4.007812-8.941407-8.945312-8.941407zm0 0" fill="#f9a7a7"/><path d="m302.871094 229.113281h-46.339844c4.023438 0 7.285156-3.261719 7.285156-7.285156v-41.824219c0-4.023437-3.261718-7.289062-7.285156-7.289062h-.714844v-3c4.417969 0 8-3.582032 8-8v-16c0-4.417969-3.582031-8-8-8h-3.09375c-2.710937 0-4.90625 2.199218-4.90625 4.910156v22.183594c0 2.398437 1.722656 4.386718 4 4.816406v3.089844h-.714844c-4.023437 0-7.285156 3.265625-7.285156 7.289062v41.824219c0 4.023437 3.261719 7.285156 7.285156 7.285156h-1.917968c-2.964844 0-5.367188 2.402344-5.367188 5.367188v5.265625c0 2.960937 2.402344 5.363281 5.367188 5.363281h57.265625c2.964843 0 5.367187-2.402344 5.367187-5.363281v-1.691406c-.003906-4.9375-4.007812-8.941407-8.945312-8.941407zm0 0" fill="#f9a7a7"/><path d="m371.972656 249.113281h-280.066406c-5.496094 0-9.964844-4.59375-9.964844-10.246093v-28.0625c0-1.910157.515625-3.777344 1.496094-5.402344l57.667969-95.453125c1.828125-3.027344 4.996093-4.835938 8.46875-4.835938h164.730469c3.472656 0 6.640624 1.808594 8.46875 4.835938l57.667968 95.453125c.976563 1.625 1.496094 3.492187 1.496094 5.402344v28.0625c.003906 5.652343-4.46875 10.246093-9.964844 10.246093zm-222.398437-136c-.648438 0-1.253907.363281-1.621094.972657l-57.667969 95.453124c-.226562.375-.34375.8125-.34375 1.265626v28.0625c0 1.238281.878906 2.246093 1.964844 2.246093h280.066406c1.082032 0 1.96875-1.007812 1.96875-2.246093v-28.0625c0-.453126-.121094-.890626-.347656-1.265626l-57.667969-95.453124c-.367187-.609376-.972656-.976563-1.621093-.976563h-164.730469zm0 0" fill="#3762cc"/><path d="m320.25 176.847656-2.542969 7.199219-12.917969-4.566406 2.546876-7.195313zm0 0" fill="#f9a7a7"/><path d="m296.480469 191.617188c-2.144531-.757813-3.265625-3.105469-2.507813-5.25l10.109375-28.609376c.753907-2.144531 3.105469-3.265624 5.246094-2.507812 2.144531.753906 3.265625 3.105469 2.507813 5.246094l-10.109376 28.613281c-.753906 2.140625-3.105468 3.261719-5.246093 2.507813zm0 0" fill="#f9a7a7"/><path d="m449.941406 289.113281h-420c-11.046875 0-20-8.953125-20-20v-16c0-4.417969 3.582032-8 8-8h444c4.417969 0 8 3.582031 8 8v16c0 11.046875-8.957031 20-20 20zm0 0" fill="#6bdddd"/><path d="m449.941406 293.113281h-420c-13.234375 0-24-10.765625-24-24v-16c0-6.617187 5.378906-12 12-12h444c6.617188 0 12 5.382813 12 12v16c0 13.234375-10.769531 24-24 24zm-432-44c-2.207031 0-4 1.792969-4 4v16c0 8.820313 7.175782 16 16 16h420c8.820313 0 16-7.179687 16-16v-16c0-2.207031-1.796875-4-4-4zm0 0" fill="#3762cc"/><path d="m469.742188 240.1875h-9.800782c-2.210937 0-4-1.792969-4-4v-36c0-2.207031 1.789063-4 4-4h9.800782c5.625 0 10.199218 4.574219 10.199218 10.195312v23.609376c0 5.621093-4.574218 10.195312-10.199218 10.195312zm-5.800782-8h5.800782c1.210937 0 2.199218-.988281 2.199218-2.195312v-23.609376c0-1.210937-.988281-2.195312-2.199218-2.195312h-5.800782zm0 0" fill="#3762cc"/><path d="m33.726562 46.628906c-6.742187 14.738282-17.929687 27.015625-31.851562 35.128906-2.5 1.457032-2.5 4.988282 0 6.441407 13.921875 8.113281 25.109375 20.394531 31.851562 35.132812 1.3125 2.863281 5.390626 2.863281 6.703126 0 6.742187-14.738281 17.929687-27.019531 31.855468-35.132812 2.496094-1.453125 2.496094-4.988281 0-6.441407-13.925781-8.113281-25.113281-20.390624-31.855468-35.128906-1.3125-2.863281-5.390626-2.863281-6.703126 0zm0 0" fill="#ffea92"/><path d="m84.652344 1.972656c-4.71875 10.316406-12.550782 18.910156-22.296875 24.59375-1.746094 1.015625-1.746094 3.492188 0 4.507813 9.746093 5.679687 17.578125 14.273437 22.296875 24.59375.917968 2.003906 3.773437 2.003906 4.691406 0 4.71875-10.320313 12.550781-18.914063 22.296875-24.59375 1.75-1.015625 1.75-3.488281 0-4.507813-9.746094-5.683594-17.578125-14.277344-22.296875-24.59375-.917969-2.003906-3.773438-2.003906-4.691406 0zm0 0" fill="#ffea92"/><path d="m288.183594 366.632812h-96.488282c-6.492187 0-11.757812-5.261718-11.757812-11.757812v-128.488281c0-6.492188 5.261719-11.757813 11.757812-11.757813h96.488282c6.492187 0 11.757812 5.265625 11.757812 11.757813v128.488281c0 6.496094-5.265625 11.757812-11.757812 11.757812zm0 0" fill="#e0ebfc"/><path d="m288.183594 370.632812h-96.488282c-8.691406 0-15.753906-7.066406-15.753906-15.757812v-128.488281c0-8.6875 7.066406-15.753907 15.753906-15.753907h96.488282c8.6875 0 15.753906 7.066407 15.753906 15.753907v128.488281c.003906 8.691406-7.066406 15.757812-15.753906 15.757812zm-96.488282-152c-4.277343 0-7.753906 3.476563-7.753906 7.753907v128.488281c0 4.277344 3.476563 7.757812 7.753906 7.757812h96.488282c4.277344 0 7.753906-3.480468 7.753906-7.757812v-128.488281c0-4.277344-3.476562-7.753907-7.753906-7.753907zm0 0" fill="#3762cc"/><path d="m275.414062 264.046875h-.992187c-4.636719 0-8.390625 3.757813-8.390625 8.394531v-21.886718c0-4.636719-3.761719-8.398438-8.398438-8.398438h-.996093c-4.636719 0-8.390625 3.757812-8.390625 8.390625v-12.503906c0-4.636719-3.761719-8.394531-8.398438-8.394531h-.988281c-4.636719 0-8.398437 3.757812-8.398437 8.394531v8.371093c0-4.65625-3.773438-8.429687-8.425782-8.429687h-.925781c-4.65625 0-8.433594 3.777344-8.433594 8.433594v42.96875c0-8.238281-6.679687-14.921875-14.917969-14.921875h-.996093c-1.03125 0-1.871094.839844-1.871094 1.875v78.375c0 8.148437 2.53125 16.09375 7.238281 22.742187l.78125 1.109375c.703125 1.273438 1.542969 2.457032 2.503906 3.53125l.359376.503906s.007812-.027343.019531-.082031c1.988281 2.09375 4.445312 3.738281 7.210937 4.761719 0 0 .003906 0 .003906.003906v15.515625c0 .003907 0 .003907.003907.003907h-.003907v51.972656h58.5v-51.972656h-.003906s.003906 0 .003906-.003907v-15.652343c0-.003907 0-.003907 0-.003907 7.054688-2.78125 12.054688-9.640625 12.054688-17.683593v-32.449219h.0625c.101562 0 .1875-.085938.1875-.1875v-64.382813c0-4.632812-3.757812-8.394531-8.398438-8.394531zm0 0" fill="#f9cfcf"/><path d="m275.421875 260.042969h-1c-1.542969 0-3.027344.289062-4.390625.804687v-10.292968c0-6.839844-5.5625-12.398438-12.398438-12.398438h-.996093c-.203125 0-.390625.042969-.589844.050781-.132813.011719-.261719.023438-.390625.039063-1.1875.09375-2.34375.308594-3.414062.710937v-.914062c0-6.835938-5.5625-12.398438-12.398438-12.398438h-.992188c-.652343 0-1.289062.066407-1.917968.164063-.105469.015625-.207032.027344-.308594.046875-.601562.109375-1.183594.265625-1.753906.460937-.097656.03125-.195313.066406-.289063.105469-.582031.210937-1.144531.457031-1.679687.753906-.015625.007813-.027344.015625-.039063.023438-.535156.296875-1.039062.640625-1.523437 1.007812-.0625.050781-.125.09375-.1875.140625-.46875.375-.902344.777344-1.3125 1.214844-.066406.070312-.132813.144531-.199219.21875-.402344.449219-.78125.921875-1.113281 1.425781-.027344.039063-.046875.078125-.070313.113281-.320312.5-.609375 1.023438-.859375 1.566407-.027344.0625-.058594.125-.089844.1875-.242187.546875-.4375 1.121093-.597656 1.707031-.015625.058594-.039062.109375-.054687.164062-1.472657-.621093-3.089844-.960937-4.785157-.960937h-.996093c-6.835938 0-12.398438 5.5625-12.398438 12.398437v27.5625c-3.085937-2.191406-6.855469-3.480468-10.917969-3.480468h-.996093c-3.234375 0-5.871094 2.636718-5.871094 5.875v77.160156c0 9.742188 2.953125 19.097656 8.539063 27.070312.785156 1.414063 1.746093 2.777344 2.875 4.054688l.203124.289062c.269532.375.59375.695313.960938.945313 1.628906 1.601563 3.507812 2.960937 5.539062 4.015625v12.925781.003907 51.96875c0 2.210937 1.792969 4 4 4h58.5c2.210938 0 4-1.789063 4-4v-51.96875s0 0 0-.003907v-13.113281c7.40625-3.988281 12.058594-11.65625 12.058594-20.230469v-32.433593l.25-64.585938c-.003906-6.832031-5.5625-12.394531-12.394531-12.394531zm4.144531 76.96875v32.449219c0 6.179687-3.707031 11.640624-9.457031 13.9375-1.519531.570312-2.601563 2.035156-2.601563 3.75v15.460937c0 .066406-.003906.132813-.003906.199219s.003906.132812.003906.199218v47.773438h-50.5v-47.773438c.003907-.066406.003907-.132812.003907-.199218s0-.132813-.003907-.199219v-15.324219c0-1.511718-.859374-2.902344-2.210937-3.582031-.132813-.0625-.265625-.121094-.402344-.171875-2.152343-.792969-4.121093-2.09375-5.695312-3.757812-.042969-.042969-.082031-.085938-.125-.125-.046875-.0625-.097657-.121094-.152344-.179688-.832031-.925781-1.527344-1.90625-2.0625-2.90625-.078125-.144531-.164063-.285156-.261719-.417969-4.710937-6.65625-7.203125-14.488281-7.203125-22.644531v-74.972656c5.488281.570312 9.78125 5.226562 9.78125 10.863281v22.066406c0 2.210938 1.792969 4 4 4 2.210938 0 4-1.789062 4-4v-65.035156c0-2.445313 1.988281-4.433594 4.433594-4.433594h.921875c2.441406 0 4.429688 1.988281 4.429688 4.433594v64.277344c-.058594.273437-.089844.558593-.089844.851562 0 2.207031 1.792968 4 4 4 2.207031 0 4.089844-1.882812 4.089844-4.089843v-65.039063c0-.007813 0-.019531 0-.027344 0-.003906 0-.007812 0-.015625v-8.332031c0-2.425781 1.972656-4.398437 4.398437-4.398437h.988281c2.425782 0 4.398438 1.972656 4.398438 4.398437v74.15625c-.054688.269531-.085938.546875-.085938.835937 0 2.207032 1.792969 4 4 4 2.207032 0 4.085938-1.878906 4.085938-4.085937v-62.132813c0-2.570312 2.195312-4.660156 4.890625-4.660156 2.699219 0 4.894531 2.089844 4.894531 4.660156v61.902344c0 2.207032 1.789062 4 4 4 2.207031 0 4-1.792968 4-4v-40.28125c0-2.421875 1.96875-4.394531 4.390625-4.394531h1c2.421875 0 4.390625 1.972656 4.390625 4.378906zm0 0" fill="#3762cc"/><path d="m151.8125 172.714844h.714844c.019531 0 .035156.007812.050781.007812v-3.082031c-.253906.023437-.503906.078125-.765625.078125zm0 0" fill="#e0ebfc"/><path d="m139.8125 180.003906c0-4.023437 3.261719-7.289062 7.285156-7.289062h.714844v-3.089844c-2.273438-.429688-4-2.417969-4-4.816406v-22.183594c0-2.710938 2.199219-4.910156 4.910156-4.910156h3.089844c.261719 0 .511719.054687.765625.078125v-15.59375c-.261719.25-.5.527343-.691406.84375l-34.609375 57.292969c-1.613282 2.667968.308594 6.070312 3.421875 6.070312h19.113281zm0 0" fill="#e0ebfc"/></svg>